Genre:Drama | Sci-Fi | Thriller 
Language:English
IMDb:http://www.imdb.com/title/tt1334260/
Source:BluRay.720p.x264.DTS-MySiLU


Format : Matroska
File size : 1.91 GiB
Duration : 1h 43mn
Overall bit rate : 2 631 Kbps


Video
Format settings, CABAC : Yes
Format settings, ReFrames : 4 frames
Format settings, GOP : M=1, N=32
Codec ID : V_MPEG4/ISO/AVC
Duration : 1h 43mn
Bit rate : 2 300 Kbps
Width : 1 276 pixels
Height : 544 pixels
Display aspect ratio : 2.35:1
Frame rate mode : Variable
Frame rate : 23.976 fps
Color space : YUV
Chroma subsampling : 4:2:0
Bit depth : 8 bits
Scan type : Progressive
Bits/(Pixel*Frame) : 0.138
Stream size : 1.59 GiB (83%)
Writing library : x264


Audio
ID : 2
Format : AC-3
Format/Info : Audio Coding 3
Mode extension : CM (complete main)
Codec ID : A_AC3
Duration : 1h 43mn
Bit rate mode : Constant
Bit rate : 384 Kbps
Channel(s) : 6 channels
Channel positions : Front: L C R, Side: L R, LFE
Sampling rate : 48.0 KHz
Bit depth : 16 bits
Video delay : -1mn 5s
Stream size : 285 MiB (15%)
Language : English


Plot:
As children, Ruth, Kathy and Tommy, spend their childhood at a seemingly idyllic English boarding school.




================================== 
http://thepiratebay.org/user/hiest
==================================




Screen Shots:
 
http://img585.imageshack.us/img585/1773/vlcsnap2010122922h40m08.png
 
http://img87.imageshack.us/img87/8077/vlcsnap2010122922h39m55.png
 
http://img402.imageshack.us/img402/7563/vlcsnap2010122922h39m33.png
 
http://img232.imageshack.us/img232/7967/vlcsnap2010122922h37m41.png
 
http://img339.imageshack.us/img339/5553/vlcsnap2010122922h37m34.png